<svg version="1.1" id="Layer_1" xmlns="http://www.w3.org/2000/svg" xmlns:xlink="http://www.w3.org/1999/xlink" x="0px" y="0px" width="100%" viewBox="0 0 512 512" enable-background="new 0 0 512 512" xml:space="preserve">
<path fill="#2196F3" opacity="1.000000" stroke="none" d="&#10;M395.088074,222.802734 &#10;&#9;C392.947845,232.157288 385.615326,235.593674 378.323029,238.882935 &#10;&#9;C363.977966,245.353409 349.626617,251.823532 335.123169,257.926208 &#10;&#9;C312.942261,267.259308 294.249298,281.413452 278.428009,299.253052 &#10;&#9;C267.389465,311.699707 258.296906,325.554962 251.869553,341.100891 &#10;&#9;C246.658661,353.704590 240.523636,365.925842 235.295029,378.522797 &#10;&#9;C232.913818,384.259735 230.411575,389.690216 224.978775,392.954742 &#10;&#9;C213.546860,399.824280 200.234741,394.752136 194.909424,382.363708 &#10;&#9;C187.089325,364.171509 179.467758,345.830933 170.400772,328.255585 &#10;&#9;C161.416077,310.839752 148.821808,296.006470 133.821442,283.068146 &#10;&#9;C117.631310,269.103577 98.933823,260.015472 79.546860,251.767807 &#10;&#9;C66.736023,246.317795 54.153954,240.298477 41.653885,234.158585 &#10;&#9;C29.608084,228.241821 28.755775,205.025665 43.428455,198.252121 &#10;&#9;C61.689114,189.822205 80.020172,181.543594 98.361694,173.290451 &#10;&#9;C110.467873,167.843018 121.258095,160.431274 131.499527,152.056274 &#10;&#9;C145.383713,140.702423 156.829666,127.167442 165.529770,111.677597 &#10;&#9;C172.578430,99.127991 178.035751,85.670197 183.956558,72.506210 &#10;&#9;C188.344315,62.750713 191.991104,52.652069 196.599457,43.008045 &#10;&#9;C203.117386,29.367842 223.053925,29.920443 230.226791,40.003532 &#10;&#9;C233.732437,44.931522 235.576828,51.069752 237.999756,56.734379 &#10;&#9;C246.736542,77.160484 253.725952,98.451660 266.112549,117.110207 &#10;&#9;C278.208130,135.330414 292.778351,151.636978 311.768738,162.682983 &#10;&#9;C328.119263,172.193436 345.647614,179.684509 362.688629,187.999893 &#10;&#9;C370.845459,191.980118 379.182892,195.601318 387.248840,199.753571 &#10;&#9;C394.713776,203.596420 397.944336,214.045929 395.088074,222.802734 &#10;z"/>
<path fill="#7E57C2" opacity="1.000000" stroke="none" d="&#10;M373.006226,342.956909 &#10;&#9;C376.749146,334.639191 380.571869,326.751678 384.032318,318.708252 &#10;&#9;C386.658081,312.604858 389.668335,310.193115 395.637512,309.971832 &#10;&#9;C401.531860,309.753326 404.339783,313.118591 406.633545,318.037720 &#10;&#9;C411.174225,327.775360 415.602264,337.643738 421.123260,346.829132 &#10;&#9;C431.413483,363.949066 447.476746,374.258698 465.412994,381.989380 &#10;&#9;C468.857880,383.474182 472.519104,384.599030 475.699127,386.520966 &#10;&#9;C479.815491,389.008850 481.393585,392.899109 481.124939,397.929840 &#10;&#9;C480.884247,402.437012 479.171570,405.500885 475.212219,407.319702 &#10;&#9;C469.267792,410.050446 463.188904,412.496613 457.300354,415.339569 &#10;&#9;C433.263580,426.944489 417.207001,445.711151 407.968567,470.578156 &#10;&#9;C405.725708,476.615173 402.242523,481.968994 394.562286,481.135437 &#10;&#9;C390.022156,480.642639 387.290405,478.585602 385.376526,474.816406 &#10;&#9;C381.240936,466.671600 377.292206,458.425842 372.942932,450.396912 &#10;&#9;C365.373718,436.423676 353.817535,426.347015 340.151947,418.744507 &#10;&#9;C333.185242,414.868713 325.684967,411.931061 318.347473,408.750061 &#10;&#9;C313.422974,406.615143 310.409698,403.396332 309.935730,397.772614 &#10;&#9;C309.432098,391.796844 311.980743,388.306213 317.299194,385.861328 &#10;&#9;C326.178955,381.779388 335.106598,377.685181 343.545685,372.788818 &#10;&#9;C355.873352,365.636322 365.151581,355.156982 373.006226,342.956909 &#10;z"/>
</svg>